<?xml version="1.0" standalone="no"?>
<!DOCTYPE svg PUBLIC "-//W3C//DTD SVG 20010904//EN"
 "http://www.w3.org/TR/2001/REC-SVG-20010904/DTD/svg10.dtd">
<svg version="1.0" xmlns="http://www.w3.org/2000/svg"
 width="8334.000000pt" height="8334.000000pt" viewBox="0 0 8334.000000 8334.000000"
 preserveAspectRatio="xMidYMid meet">

<g transform="translate(0.000000,8334.000000) scale(0.100000,-0.100000)"
fill="#000000" stroke="none">
<path d="M37270 71499 c-2240 -66 -4378 -751 -6250 -2000 -1125 -751 -2038
-1614 -2842 -2684 -1397 -1861 -2211 -4005 -2402 -6320 -54 -659 -45 -1425 24
-2095 117 -1120 383 -2193 802 -3234 519 -1290 1254 -2461 2216 -3531 l117
-129 3 2187 c2 2124 1 2189 -17 2225 -34 67 -177 462 -260 716 -166 507 -298
1046 -385 1571 -129 778 -127 2063 5 2847 144 862 422 1800 729 2458 392 843
910 1654 1450 2270 354 404 787 826 1203 1174 655 545 1720 1167 2509 1465
547 207 1111 368 1703 486 336 67 481 89 760 114 371 34 594 44 990 44 887 -1
1487 -74 2310 -283 520 -132 1115 -332 1481 -496 509 -229 1048 -531 1544
-863 290 -194 482 -337 707 -528 457 -387 919 -854 1311 -1325 545 -655 1167
-1723 1460 -2508 244 -652 440 -1384 546 -2040 127 -785 125 -2054 -5 -2834
-133 -801 -410 -1759 -680 -2352 l-69 -151 0 -2134 1 -2134 96 100 c286 299
606 693 1012 1244 353 479 825 1298 1116 1936 537 1176 840 2299 989 3670 133
1223 83 2365 -160 3585 -417 2105 -1355 3977 -2786 5566 -1050 1166 -2248
2074 -3656 2772 -1389 689 -2797 1074 -4342 1187 -202 15 -794 36 -920 33 -36
-1 -175 -5 -310 -9z"/>
<path d="M37055 66650 c-673 -53 -1254 -170 -1844 -372 -1063 -363 -2025 -976
-2729 -1738 -582 -629 -1002 -1343 -1260 -2140 -146 -450 -225 -852 -280
-1414 -15 -158 -16 -1034 -19 -11228 l-3 -11057 -878 878 c-1302 1303 -1468
1455 -1892 1736 -727 483 -1536 761 -2465 847 -211 20 -796 16 -1015 -5 -956
-96 -1825 -381 -2631 -863 -59 -35 -176 -96 -260 -134 -1067 -491 -2017 -1288
-2635 -2210 -435 -649 -711 -1307 -888 -2116 -24 -109 -69 -296 -99 -414 -371
-1436 -238 -3003 370 -4350 230 -510 530 -982 899 -1416 91 -107 1904 -1926
6443 -6467 5906 -5908 6774 -6772 7056 -7023 733 -651 1454 -1101 2295 -1431
778 -306 1595 -482 2465 -533 235 -14 18967 -13 19200 0 1318 77 2526 396
3640 960 1076 545 2037 1315 2834 2270 152 182 403 517 543 725 637 944 1098
2008 1343 3100 26 116 73 314 106 441 127 499 203 957 256 1539 16 178 18 702
21 8445 2 5820 0 8303 -8 8419 -27 411 -118 896 -246 1309 -95 306 -267 695
-424 957 -181 302 -474 675 -770 979 -447 458 -896 777 -1425 1011 -1282 568
-2708 614 -3945 128 -286 -112 -650 -303 -897 -471 -34 -23 -66 -42 -71 -42
-4 0 -28 37 -52 83 -78 146 -157 275 -269 435 -402 573 -864 1026 -1426 1397
-215 142 -340 213 -573 329 -569 280 -1081 428 -1697 488 -196 19 -702 16
-910 -6 -792 -82 -1506 -321 -2175 -726 -101 -61 -215 -134 -253 -161 -37 -28
-74 -52 -80 -55 -7 -2 -28 30 -52 78 -105 215 -301 520 -488 761 -537 689
-1237 1221 -2080 1581 -626 268 -1285 392 -1972 372 -269 -8 -309 -11 -515
-36 -375 -46 -762 -140 -1113 -269 l-132 -48 -5 5791 c-5 4423 -9 5823 -18
5926 -81 906 -248 1551 -571 2216 -196 402 -415 740 -717 1105 -948 1147
-2301 1958 -3805 2283 -235 51 -497 91 -799 123 -170 17 -911 26 -1085 13z
m818 -2925 c696 -75 1343 -307 1912 -688 144 -96 275 -195 422 -320 59 -51
142 -116 183 -146 716 -516 1260 -1284 1519 -2141 74 -248 117 -456 158 -765
16 -121 18 -597 25 -6990 4 -3773 11 -7728 16 -8790 7 -1782 9 -1935 25 -1993
62 -227 225 -431 420 -527 133 -65 196 -78 342 -72 141 6 208 22 330 81 179
85 314 225 388 399 60 143 57 46 57 2102 l0 1883 73 68 c380 354 881 635 1393
782 163 47 340 84 514 109 180 25 723 25 895 0 770 -113 1400 -414 1949 -928
239 -224 529 -599 655 -848 l23 -44 -11 -1091 c-13 -1257 -13 -2459 -2 -2756
8 -186 11 -213 36 -289 72 -213 228 -392 425 -485 206 -98 452 -85 679 35 154
82 259 189 336 341 79 157 74 38 78 1856 l4 1622 24 26 c13 15 71 64 129 111
963 775 2272 980 3430 536 336 -129 637 -302 933 -535 139 -110 453 -428 561
-568 244 -315 426 -650 552 -1013 l46 -132 -13 -1265 c-7 -696 -13 -1677 -13
-2180 -1 -856 0 -920 17 -995 57 -247 226 -460 447 -564 158 -75 363 -82 547
-19 269 92 458 288 523 543 19 75 20 111 20 829 0 413 5 1138 10 1611 5 473
12 1163 16 1532 l7 673 121 79 c392 255 793 417 1251 505 383 74 866 76 1254
5 895 -162 1698 -680 2228 -1437 344 -492 547 -1030 625 -1662 11 -85 13
-1551 13 -7870 0 -7385 -1 -7774 -18 -7950 -10 -102 -29 -267 -42 -367 -185
-1360 -755 -2643 -1643 -3692 -57 -68 -98 -120 -91 -116 8 5 27 17 42 28 16
10 30 17 32 15 2 -2 -42 -55 -97 -118 -148 -169 -510 -526 -688 -679 -1039
-891 -2267 -1460 -3600 -1670 -129 -21 -399 -52 -625 -73 -178 -16 -18427 -24
-18797 -8 -447 19 -815 72 -1228 175 -773 193 -1502 540 -2146 1021 -246 183
-422 341 -786 704 -775 773 -12016 12110 -12101 12205 -186 209 -396 510 -531
765 -321 602 -500 1236 -557 1973 -16 203 -6 797 16 982 111 943 434 1750 963
2410 189 235 527 555 829 783 878 662 1972 1031 2968 998 914 -29 1709 -347
2352 -938 62 -57 1307 -1308 2767 -2781 1461 -1472 2659 -2677 2663 -2678 5 0
19 49 33 108 l24 108 6 13150 5 13150 23 155 c123 848 412 1525 926 2170 128
161 475 508 636 636 310 247 663 459 1012 608 413 175 901 291 1373 326 160
12 536 4 708 -15z"/>
</g>
</svg>
